<?xml version="1.0" encoding="UTF-8"?>
<svg width="600" height="700" xmlns="http://www.w3.org/2000/svg">
  <g id="japan-map">
    <rect id="北海道" x="300" y="50" width="60" height="40" fill="#ccc" stroke="#000"/>
    <rect id="青森" x="310" y="100" width="50" height="30" fill="#ccc" stroke="#000"/>
    <rect id="岩手" x="320" y="140" width="50" height="30" fill="#ccc" stroke="#000"/>
    <rect id="宮城" x="330" y="180" width="50" height="30" fill="#ccc" stroke="#000"/>
    <rect id="秋田" x="290" y="140" width="50" height="30" fill="#ccc" stroke="#000"/>
    <rect id="山形" x="300" y="180" width="50" height="30" fill="#ccc" stroke="#000"/>
    <rect id="福島" x="310" y="220" width="50" height="30" fill="#ccc" stroke="#000"/>
    <rect id="東京" x="320" y="260" width="50" height="30" fill="#ccc" stroke="#000"/>
    <rect id="神奈川" x="330" y="300" width="50" height="30" fill="#ccc" stroke="#000"/>
    <rect id="愛知" x="280" y="360" width="50" height="30" fill="#ccc" stroke="#000"/>
    <rect id="大阪" x="250" y="400" width="50" height="30" fill="#ccc" stroke="#000"/>
    <rect id="兵庫" x="200" y="400" width="50" height="30" fill="#ccc" stroke="#000"/>
    <rect id="福岡" x="150" y="500" width="50" height="30" fill="#ccc" stroke="#000"/>
    <rect id="熊本" x="160" y="540" width="50" height="30" fill="#ccc" stroke="#000"/>
    <rect id="鹿児島" x="170" y="580" width="50" height="30" fill="#ccc" stroke="#000"/>
    <rect id="沖縄" x="300" y="650" width="50" height="30" fill="#ccc" stroke="#000"/>
  </g>
</svg>
